HIERARCHY
ROOT Hips
{
  OFFSET 265.287 66.7526 -254.649
  CHANNELS 6 Xposition Yposition Zposition Zrotation Xrotation Yrotation
  JOINT LeftUpLeg
  {
    OFFSET 8.64259 1.95398 -2.38835
    CHANNELS 3 Zrotation Xrotation Yrotation
    JOINT LeftLeg
    {
      OFFSET 43.7702 0 0
      CHANNELS 3 Zrotation Xrotation Yrotation
      JOINT LeftFoot
      {
        OFFSET 40.6238 0 0
        CHANNELS 3 Zrotation Xrotation Yrotation
        JOINT LeftToeBase
        {
          OFFSET 12.7242 0 0
          CHANNELS 3 Zrotation Xrotation Yrotation
          End Site
          {
            OFFSET 0 0 0
          }
        }
      }
    }
  }
  JOINT RightUpLeg
  {
    OFFSET -8.2249 1.95398 -2.59336
    CHANNELS 3 Zrotation Xrotation Yrotation
    JOINT RightLeg
    {
      OFFSET 43.5653 0 0
      CHANNELS 3 Zrotation Xrotation Yrotation
      JOINT RightFoot
      {
        OFFSET 40.6238 0 0
        CHANNELS 3 Zrotation Xrotation Yrotation
        JOINT RightToeBase
        {
          OFFSET 12.7242 0 0
          CHANNELS 3 Zrotation Xrotation Yrotation
          End Site
          {
            OFFSET 0 0 0
          }
        }
      }
    }
  }
  JOINT Spine
  {
    OFFSET 0.165834 0.87714 6.61349
    CHANNELS 3 Zrotation Xrotation Yrotation
    JOINT Spine1
    {
      OFFSET 7.38963 1.71661e-005 0
      CHANNELS 3 Zrotation Xrotation Yrotation
      JOINT Spine2
      {
        OFFSET 11.9445 1.14441e-005 0
        CHANNELS 3 Zrotation Xrotation Yrotation
        JOINT Spine3
        {
          OFFSET 14.7254 4.19617e-005 0
          CHANNELS 3 Zrotation Xrotation Yrotation
          JOINT Spine4
          {
            OFFSET 10.9679 0 0
            CHANNELS 3 Zrotation Xrotation Yrotation
            JOINT RightShoulder
            {
              OFFSET 2.46616 -1.6653 3.69651
              CHANNELS 3 Zrotation Xrotation Yrotation
              JOINT RightArm
              {
                OFFSET 13.0012 0 0
                CHANNELS 3 Zrotation Xrotation Yrotation
                JOINT RightForeArm
                {
                  OFFSET 28.7848 1.52588e-005 0
                  CHANNELS 3 Zrotation Xrotation Yrotation
                  JOINT RightHand
                  {
                    OFFSET 26.5688 1.52588e-005 0
                    CHANNELS 3 Zrotation Xrotation Yrotation
                    End Site
                    {
                      OFFSET 0 0 0
                    }
                  }
                }
              }
            }
            JOINT LeftShoulder
            {
              OFFSET 2.38034 -1.29275 -3.7523
              CHANNELS 3 Zrotation Xrotation Yrotation
              JOINT LeftArm
              {
                OFFSET 16.3182 6.10351e-005 0
                CHANNELS 3 Zrotation Xrotation Yrotation
                JOINT LeftForeArm
                {
                  OFFSET 27.0901 0 0
                  CHANNELS 3 Zrotation Xrotation Yrotation
                  JOINT LeftHand
                  {
                    OFFSET 24.5451 1.52588e-005 0
                    CHANNELS 3 Zrotation Xrotation Yrotation
                    End Site
                    {
                      OFFSET 0 0 0
                    }
                  }
                }
              }
            }
            JOINT Neck
            {
              OFFSET 5.0226 -0.0266342 0
              CHANNELS 3 Zrotation Xrotation Yrotation
              JOINT Head
              {
                OFFSET 6.69364 2.86102e-005 0
                CHANNELS 3 Zrotation Xrotation Yrotation
                End Site
                {
                  OFFSET 0 0 0
                }
              }
            }
          }
        }
      }
    }
  }
}
MOTION
Frames:	10
Frame Time:	0.0416667
-1.36237 97.8044 47.7673 148.803 -84.4109 151.005 -171.6 -2.39557 92.5831 -12.4306 19.8286 2.51022 58.0983 2.05231 19.899 39.6007 -3.3334 -0.899232 176.318 1.55244 89.0459 -14.4648 -3.60365 -1.3967 56.3737 4.93064 15.5142 33.9816 -0.766631 0.187077 -0.171962 7.19397 -90.3852 12.5049 -0.524814 -0.707582 0.833923 -0.555445 -0.68382 -21.7 -0.287907 -0.832596 -1.68736 -0.287902 -0.832592 101.281 -54.1498 -83.4792 29.7962 2.72974 -5.22882 -2.66102 -12.8062 -13.3244 -13.97 -0.891396 2.28146 -81.0047 -50.3587 92.0913 -27.1628 13.9169 -15.9562 2.85023 25.4807 -6.65979 4.42685 0.0323629 -2.30129 0.961477 -0.27192 -5.59784 -7.55877 0.358111 5.59715 
-1.3474 97.7854 47.788 149.079 -84.4256 151.247 -171.565 -2.44619 92.5671 -12.3516 19.7352 2.45545 58.1671 2.08475 19.9181 39.6893 -3.35594 -1.46655 176.216 1.54959 88.9266 -14.4617 -3.62361 -1.34222 56.2855 5.00961 15.8914 34.0713 -0.796735 0.417176 -0.161635 7.19397 -90.3852 12.4957 -0.50438 -0.710639 0.824645 -0.53517 -0.687771 -21.7092 -0.267498 -0.829372 -1.69659 -0.267501 -0.82938 101.326 -54.042 -83.4143 29.9698 3.06333 -5.28413 -3.00779 -13.5164 -13.2947 -12.8179 -0.83914 2.49364 -81.0532 -50.3906 92.0195 -27.2199 13.6195 -16.2168 3.13721 27.4569 -6.52179 3.71296 -0.0181762 -3.00367 0.875531 -0.367338 -5.67004 -7.45512 0.272244 5.66722 
-1.38636 97.777 47.7491 148.227 -84.4172 150.421 -171.568 -2.36998 92.5891 -12.3276 19.3747 2.47638 58.2579 2.1378 19.8095 39.6345 -3.33375 -1.89942 176.254 1.53015 89.0303 -14.3484 -3.76696 -1.3195 56.4245 4.82879 15.0353 33.6402 -0.886186 2.56985 -0.177123 7.18757 -90.3832 12.494 -0.534256 -0.703848 0.822968 -0.564715 -0.679668 -21.711 -0.298028 -0.831863 -1.69834 -0.298031 -0.83187 101.257 -54.0184 -83.5168 30.0441 3.36242 -5.27486 -3.29795 -14.515 -13.3474 -12.7464 -0.819217 2.35102 -80.9881 -50.2567 92.1104 -27.0923 14.1507 -16.8779 1.73134 25.1408 -4.6621 5.39403 0.010136 -2.88257 1.06352 -0.342052 -6.41212 -7.82331 0.364836 6.57469 
-1.37705 97.7841 47.7496 147.101 -84.5044 149.291 -171.743 -2.3807 92.4572 -12.0664 18.5269 2.59623 58.494 2.25494 19.3065 39.4411 -3.26816 -2.12633 176.299 1.64229 89.0458 -14.3472 -3.7264 -1.35092 56.3983 4.89182 15.1652 33.7328 -0.841539 1.75893 -0.183127 7.17222 -90.3811 12.5277 -0.545271 -0.698027 0.856719 -0.575459 -0.673359 -21.6773 -0.310285 -0.829627 -1.66465 -0.310283 -0.82963 101.239 -54.0181 -83.544 30.0502 3.40974 -5.18626 -3.37197 -14.4449 -13.4014 -12.4693 -0.773576 2.08978 -81.0349 -50.3035 92.0426 -27.0026 14.2042 -16.8035 1.85908 25.6727 -4.86696 5.36793 -0.000772669 -3.03791 0.775205 -0.345865 -6.25804 -7.40948 0.354571 6.32748 
-1.36755 97.7756 47.7688 148.519 -84.5752 150.688 -171.376 -2.60702 92.5902 -11.5012 18.1184 2.27518 58.6048 2.3151 19.2228 39.0479 -3.12431 -3.04506 176.236 1.64245 88.9529 -14.3108 -3.66933 -1.32562 56.326 4.96125 15.7505 33.4186 -0.810689 1.89188 -0.1628 7.16636 -90.3771 12.5239 -0.503073 -0.695941 0.852852 -0.533216 -0.67313 -21.6811 -0.270666 -0.814949 -1.66845 -0.270668 -0.814957 101.28 -54.0198 -83.4829 29.9692 3.17415 -5.19524 -3.14225 -14.088 -13.2792 -12.8719 -0.788409 1.99035 -81.1108 -50.2715 91.9256 -26.9757 14.0781 -16.8238 1.91551 25.7121 -4.89191 4.45946 -0.019158 -3.17446 0.716579 -0.330772 -6.33427 -7.31017 0.381116 6.38036 
-1.38406 97.7932 47.7482 148 -84.5298 150.179 -171.275 -2.83483 92.6239 -10.9926 17.2931 2.21453 59.0934 2.58109 18.6697 38.3167 -2.86328 -3.68015 176.283 1.59747 89.0245 -14.2709 -3.76684 -1.34641 56.499 4.81835 15.1125 33.4074 -0.833678 2.22566 -0.177146 7.16417 -90.3755 12.5175 -0.530866 -0.690054 0.846446 -0.56072 -0.666022 -21.6876 -0.298948 -0.818024 -1.67494 -0.298944 -0.818019 101.211 -54.0672 -83.5844 29.8645 3.08477 -5.2185 -3.0513 -14.0468 -13.2037 -13.0933 -0.802453 1.99243 -81.0373 -50.2916 92.0378 -26.8477 14.2905 -16.8399 1.88641 25.9586 -4.96111 5.35853 -0.018734 -3.30481 0.92793 -0.273911 -6.3024 -7.7183 0.422549 6.3573 
-1.35665 97.7826 47.7277 147.272 -84.4873 149.378 -171.479 -3.05325 92.422 -10.5299 15.8883 2.3288 59.4408 2.73838 17.8647 37.7383 -2.6377 -4.61178 176.197 1.63667 88.8903 -14.3026 -3.55 -1.31909 56.34 4.94963 15.6133 33.4079 -0.817246 1.99892 -0.186035 7.16479 -90.3678 12.5123 -0.54485 -0.673214 0.841285 -0.573943 -0.648589 -21.6928 -0.31734 -0.805959 -1.6802 -0.317339 -0.805958 101.192 -53.9747 -83.6134 29.919 3.05147 -5.10633 -3.05975 -14.0742 -13.3687 -13.1722 -0.83284 2.22143 -81.0734 -50.2733 91.9824 -26.8549 14.4033 -16.8816 1.62371 24.4521 -4.71476 5.91152 -0.0289962 -3.52128 0.788017 -0.28746 -6.45916 -7.41852 0.433245 6.58185 
-1.38481 97.7983 47.7066 146.392 -84.448 148.511 -171.355 -3.25918 92.4674 -9.98342 14.79 2.24995 59.9049 2.97944 17.1899 36.9554 -2.3322 -5.4096 176.197 1.73118 88.9477 -14.5125 -3.62135 -1.2818 56.6772 4.76988 14.9878 33.1559 -0.822219 2.49245 -0.199878 7.16682 -90.3649 12.5196 -0.570963 -0.663884 0.848648 -0.59962 -0.638122 -21.6856 -0.345055 -0.804768 -1.67293 -0.345052 -0.804765 101.17 -54.0685 -83.6456 29.7107 2.90056 -5.13211 -2.95735 -14.0489 -13.2648 -13.0785 -0.835718 2.3041 -81.038 -50.2198 92.0329 -26.8166 14.5661 -16.84 1.63555 24.48 -4.87398 6.64639 0.00174302 -3.20407 0.670758 -0.298845 -6.48551 -7.37208 0.423708 6.53085 
-1.36164 97.7867 47.7249 146.928 -84.6013 149.05 -171.292 -3.49742 92.4404 -9.24109 13.2917 2.17931 60.229 3.14108 16.4139 36.6128 -2.15758 -6.67103 176.276 1.80373 88.9365 -14.4022 -3.52182 -1.37037 56.3315 4.98115 15.6297 33.5089 -0.827995 1.97207 -0.174468 7.16899 -90.3761 12.5335 -0.525708 -0.690416 0.862504 -0.555577 -0.666619 -21.6715 -0.293917 -0.816495 -1.65886 -0.293903 -0.816478 101.223 -53.8649 -83.5695 29.8565 3.0505 -5.13375 -3.06576 -14.2998 -13.3138 -13.0952 -0.836411 2.30045 -81.1407 -50.3244 91.8833 -26.802 14.2741 -16.9523 1.90895 25.5834 -4.98162 6.09852 0.0241839 -2.82092 0.817289 -0.262416 -6.4581 -7.51202 0.45085 6.67501 
-1.37383 97.7714 47.7393 147.844 -84.5788 150.002 -171.082 -3.75494 92.547 -8.80563 11.9311 2.05058 60.8611 3.41353 15.5125 35.7254 -1.78144 -7.57295 176.207 1.73595 88.9495 -14.4387 -3.64313 -1.28551 56.5867 4.82995 15.3619 33.1831 -0.799499 2.144 -0.17224 7.17206 -90.3707 12.5209 -0.518731 -0.680861 0.849839 -0.548193 -0.657376 -21.6842 -0.290128 -0.805273 -1.67157 -0.290131 -0.80528 101.185 -53.894 -83.6253 29.8666 3.06568 -5.09305 -3.07865 -14.3591 -13.3282 -13.0055 -0.818441 2.18986 -81.1259 -50.2999 91.9043 -26.7606 14.2908 -16.9359 1.74782 24.9152 -4.78512 6.50591 0.0104778 -3.05076 0.853951 -0.305764 -6.40922 -7.67152 0.398322 6.54414 
